<svg width="140" height="140" viewBox="0 0 140 140" fill="none" xmlns="http://www.w3.org/2000/svg">
<path d="M67.041 3.24619L61.9057 7.72816C60.3676 9.07059 58.2124 9.4506 56.3079 8.7152L49.9494 6.2599C47.8504 5.44938 45.4753 6.31384 44.3883 8.28398L41.0956 14.252C40.1094 16.0396 38.2142 17.1338 36.173 17.0941L29.3582 16.9616C27.1085 16.9179 25.1723 18.5425 24.8248 20.7656L23.7718 27.4999C23.4565 29.517 22.0498 31.1934 20.1182 31.8542L13.669 34.0605C11.5401 34.7889 10.2763 36.9778 10.71 39.1857L12.0238 45.874C12.4174 47.8772 11.6689 49.9336 10.0798 51.2153L4.77415 55.4943C3.02269 56.9068 2.58379 59.396 3.74651 61.3224L7.26865 67.1579C8.32359 68.9058 8.32359 71.0942 7.26865 72.8421L3.74651 78.6776C2.58379 80.604 3.02269 83.0932 4.77415 84.5057L10.0798 88.7847C11.6689 90.0664 12.4174 92.1228 12.0238 94.126L10.71 100.814C10.2763 103.022 11.5401 105.211 13.669 105.939L20.1182 108.146C22.0498 108.807 23.4565 110.483 23.7718 112.5L24.8248 119.234C25.1723 121.457 27.1085 123.082 29.3582 123.038L36.173 122.906C38.2142 122.866 40.1094 123.96 41.0956 125.748L44.3883 131.716C45.4753 133.686 47.8504 134.551 49.9494 133.74L56.3079 131.285C58.2124 130.549 60.3676 130.929 61.9057 132.272L67.041 136.754C68.7362 138.233 71.2638 138.233 72.959 136.754L78.0943 132.272C79.6324 130.929 81.7876 130.549 83.6921 131.285L90.0506 133.74C92.1496 134.551 94.5247 133.686 95.6117 131.716L98.9044 125.748C99.8906 123.96 101.786 122.866 103.827 122.906L110.642 123.038C112.891 123.082 114.828 121.457 115.175 119.234L116.228 112.5C116.544 110.483 117.95 108.807 119.882 108.146L126.331 105.939C128.46 105.211 129.724 103.022 129.29 100.814L127.976 94.126C127.583 92.1228 128.331 90.0664 129.92 88.7847L135.226 84.5057C136.977 83.0932 137.416 80.604 136.253 78.6776L132.731 72.8421C131.676 71.0942 131.676 68.9058 132.731 67.1579L136.253 61.3224C137.416 59.396 136.977 56.9068 135.226 55.4943L129.92 51.2153C128.331 49.9336 127.583 47.8772 127.976 45.874L129.29 39.1857C129.724 36.9778 128.46 34.7889 126.331 34.0605L119.882 31.8542C117.95 31.1934 116.544 29.517 116.228 27.4999L115.175 20.7656C114.828 18.5425 112.891 16.9179 110.642 16.9616L103.827 17.0941C101.786 17.1338 99.8906 16.0396 98.9044 14.252L95.6117 8.28398C94.5247 6.31384 92.1496 5.44938 90.0506 6.2599L83.6921 8.7152C81.7876 9.45061 79.6324 9.07059 78.0943 7.72816L72.959 3.24619C71.2638 1.76663 68.7362 1.76663 67.041 3.24619Z" stroke="#FF8A00"/>
<path d="M75 53L59.4142 68.5858C58.6331 69.3669 58.6331 70.6332 59.4142 71.4143L75 87.0001" stroke="#FF8A00"/>
</svg>
