<svg width="140" height="140" viewBox="0 0 140 140" fill="none" xmlns="http://www.w3.org/2000/svg">
<path d="M37.2014 76V64.4H28.1454V76H29.7774V65.808H35.5694V76H37.2014ZM40.8784 71.728C40.8784 69.376 42.1264 68.528 43.4544 68.528C44.7824 68.528 46.0304 69.424 46.0304 71.728C46.0304 73.936 44.7824 74.928 43.4544 74.928C42.1264 74.928 40.8784 74.032 40.8784 71.728ZM43.4544 67.248C41.4544 67.248 39.3264 68.608 39.3264 71.728C39.3264 74.848 41.4544 76.208 43.4544 76.208C45.4544 76.208 47.5824 74.848 47.5824 71.728C47.5824 68.608 45.4544 67.248 43.4544 67.248ZM57.2956 74.736H56.0956V67.392H50.2876L50.1756 70.16C50.0476 73.456 49.5356 74.736 48.5596 74.736H48.1756V77.904H49.5836V76H55.8876V77.904H57.2956V74.736ZM54.6396 74.736H50.4476C51.1196 74.096 51.4876 72.848 51.6156 70.304L51.6956 68.656H54.6396V74.736ZM58.7633 67.392V78.8H60.2193V74.704C60.7473 75.616 61.6432 76.208 63.0353 76.208C65.0193 76.208 66.7153 74.592 66.7153 71.728C66.7153 68.912 65.0193 67.248 63.0353 67.248C61.6432 67.248 60.7473 67.84 60.2193 68.752V67.392H58.7633ZM60.1553 71.728C60.1553 69.456 61.3713 68.496 62.6673 68.496C64.1553 68.496 65.1313 69.664 65.1313 71.728C65.1313 73.792 64.1553 74.96 62.6673 74.96C61.3713 74.96 60.1553 74 60.1553 71.728ZM69.5503 71.728C69.5503 69.376 70.7983 68.528 72.1263 68.528C73.4543 68.528 74.7023 69.424 74.7023 71.728C74.7023 73.936 73.4543 74.928 72.1263 74.928C70.7983 74.928 69.5503 74.032 69.5503 71.728ZM72.1263 67.248C70.1263 67.248 67.9983 68.608 67.9983 71.728C67.9983 74.848 70.1263 76.208 72.1263 76.208C74.1263 76.208 76.2543 74.848 76.2543 71.728C76.2543 68.608 74.1263 67.248 72.1263 67.248ZM81.9478 67.888C80.6678 67.888 79.5158 68.448 78.9398 69.648C79.1478 67.504 80.1558 66.72 82.2518 66.256L85.0038 65.664V64.368L82.1718 64.928C78.7158 65.616 77.6918 67.424 77.6438 70.528V71.52C77.6438 74.656 79.4678 76.208 81.6918 76.208C83.8038 76.208 85.5798 74.736 85.5798 71.968C85.5798 69.248 83.8998 67.888 81.9478 67.888ZM81.6918 74.944C80.2358 74.944 79.2118 73.808 79.2118 71.984C79.2118 70.048 80.3958 69.152 81.7078 69.152C83.0358 69.152 84.0278 70.112 84.0278 72C84.0278 73.872 83.0998 74.944 81.6918 74.944ZM94.4625 76V67.392H93.0065V70.976H88.7505V67.392H87.2945V76H88.7505V72.24H93.0065V76H94.4625ZM104.44 72.176C104.616 69.44 103.064 67.248 100.424 67.248C98.0715 67.248 96.2475 68.976 96.2475 71.712C96.2475 74.256 97.7515 76.208 100.472 76.208C102.568 76.208 103.944 74.976 104.328 73.504H102.824C102.456 74.352 101.752 74.928 100.472 74.928C99.2075 74.928 97.8635 74.032 97.8155 72.176H104.44ZM100.424 68.496C101.976 68.496 102.856 69.712 102.904 70.928H97.8315C97.9595 69.2 99.1435 68.496 100.424 68.496ZM113.83 72.176C114.006 69.44 112.454 67.248 109.814 67.248C107.462 67.248 105.638 68.976 105.638 71.712C105.638 74.256 107.142 76.208 109.862 76.208C111.958 76.208 113.334 74.976 113.718 73.504H112.214C111.846 74.352 111.142 74.928 109.862 74.928C108.598 74.928 107.254 74.032 107.206 72.176H113.83ZM109.814 68.496C111.366 68.496 112.246 69.712 112.294 70.928H107.222C107.35 69.2 108.534 68.496 109.814 68.496Z" fill="white"/>
<path d="M67.041 3.24619C68.7362 1.76663 71.2638 1.76663 72.959 3.24619L73.2878 2.86949L72.959 3.24619L78.0943 7.72816C79.6324 9.07059 81.7876 9.4506 83.6921 8.7152L90.0506 6.2599C92.1496 5.44938 94.5247 6.31384 95.6117 8.28398L98.9044 14.252C99.8906 16.0396 101.786 17.1338 103.827 17.0941L110.642 16.9616C112.891 16.9179 114.828 18.5425 115.175 20.7656L116.228 27.4999C116.544 29.517 117.95 31.1934 119.882 31.8542L126.331 34.0605C128.46 34.7889 129.724 36.9778 129.29 39.1857L127.976 45.874C127.583 47.8772 128.331 49.9336 129.92 51.2153L135.226 55.4943C136.977 56.9068 137.416 59.396 136.254 61.3224L132.731 67.1579C131.676 68.9058 131.676 71.0942 132.731 72.8421L136.254 78.6776C137.416 80.604 136.977 83.0932 135.226 84.5057L129.92 88.7847C128.331 90.0664 127.583 92.1228 127.976 94.126L129.29 100.814C129.724 103.022 128.46 105.211 126.331 105.939L119.882 108.146C117.95 108.807 116.544 110.483 116.228 112.5L115.175 119.234C114.828 121.457 112.891 123.082 110.642 123.038L103.827 122.906C101.786 122.866 99.8906 123.96 98.9044 125.748L95.6117 131.716C94.5247 133.686 92.1496 134.551 90.0506 133.74L83.6921 131.285C81.7876 130.549 79.6324 130.929 78.0943 132.272L72.959 136.754C71.2638 138.233 68.7362 138.233 67.041 136.754L61.9057 132.272C60.3676 130.929 58.2124 130.549 56.3079 131.285L49.9494 133.74C47.8504 134.551 45.4753 133.686 44.3883 131.716L41.0956 125.748C40.1094 123.96 38.2142 122.866 36.173 122.906L29.3582 123.038C27.1085 123.082 25.1723 121.457 24.8248 119.234L23.7718 112.5C23.4565 110.483 22.0498 108.807 20.1182 108.146L13.669 105.939C11.54 105.211 10.2763 103.022 10.71 100.814L12.0239 94.126C12.4174 92.1228 11.6689 90.0664 10.0798 88.7847L4.77416 84.5057C3.0227 83.0932 2.5838 80.604 3.74651 78.6776L7.26865 72.8421C8.3236 71.0942 8.3236 68.9058 7.26865 67.1579L3.74651 61.3224C2.5838 59.396 3.0227 56.9068 4.77415 55.4943L10.0798 51.2153C11.6689 49.9336 12.4174 47.8772 12.0239 45.874L10.71 39.1857C10.2763 36.9778 11.5401 34.7889 13.669 34.0605L20.1182 31.8542C22.0498 31.1934 23.4565 29.517 23.7718 27.4999L24.8248 20.7656C25.1723 18.5425 27.1085 16.9179 29.3582 16.9616L36.173 17.0941C38.2142 17.1338 40.1094 16.0396 41.0956 14.252L44.3883 8.28398C45.4753 6.31384 47.8504 5.44938 49.9494 6.2599L56.3079 8.7152C58.2124 9.45061 60.3676 9.07059 61.9057 7.72816L67.041 3.24619Z" stroke="#FF8A00"/>
</svg>
