<svg width="38" height="38" viewBox="0 0 38 38" fill="none" xmlns="http://www.w3.org/2000/svg">
<path d="M12.252 23V14.3H11.508C11.04 15.236 10.38 15.416 9.144 15.452V16.196H11.16V23H12.252ZM17.174 14.144C15.398 14.144 14.27 15.08 14.27 16.364C14.27 17.084 14.606 17.888 15.47 18.368C14.33 18.812 13.994 19.772 13.994 20.552C13.994 22.22 15.386 23.156 17.174 23.156C18.95 23.156 20.342 22.22 20.342 20.552C20.342 19.76 19.994 18.812 18.878 18.368C19.742 17.888 20.078 17.084 20.078 16.364C20.078 15.08 18.95 14.144 17.174 14.144ZM17.174 18.824C18.41 18.824 19.19 19.532 19.19 20.552C19.19 21.572 18.41 22.244 17.174 22.244C15.926 22.244 15.158 21.572 15.158 20.552C15.158 19.532 15.926 18.824 17.174 18.824ZM18.974 16.496C18.974 17.372 18.266 18.02 17.174 18.02C16.082 18.02 15.362 17.372 15.362 16.496C15.362 15.632 16.07 15.056 17.174 15.056C18.266 15.056 18.974 15.632 18.974 16.496ZM25.5497 23V20.288H28.2617V19.256H25.5497V16.616H24.4577V19.256H21.7457V20.288H24.4577V23H25.5497Z" fill="#575757"/>
<circle cx="19" cy="19" r="18.5" stroke="#575757"/>
</svg>
