<svg width="140" height="140" viewBox="0 0 140 140" fill="none" xmlns="http://www.w3.org/2000/svg">
<path d="M67.041 3.24619C68.7362 1.76663 71.2638 1.76663 72.959 3.24619L73.2878 2.86949L72.959 3.24619L78.0943 7.72816C79.6324 9.07059 81.7876 9.4506 83.6921 8.7152L90.0506 6.2599C92.1496 5.44938 94.5247 6.31384 95.6117 8.28398L98.9044 14.252C99.8906 16.0396 101.786 17.1338 103.827 17.0941L110.642 16.9616C112.891 16.9179 114.828 18.5425 115.175 20.7656L116.228 27.4999C116.544 29.517 117.95 31.1934 119.882 31.8542L126.331 34.0605C128.46 34.7889 129.724 36.9778 129.29 39.1857L127.976 45.874C127.583 47.8772 128.331 49.9336 129.92 51.2153L135.226 55.4943C136.977 56.9068 137.416 59.396 136.254 61.3224L132.731 67.1579C131.676 68.9058 131.676 71.0942 132.731 72.8421L136.254 78.6776C137.416 80.604 136.977 83.0932 135.226 84.5057L129.92 88.7847C128.331 90.0664 127.583 92.1228 127.976 94.126L129.29 100.814C129.724 103.022 128.46 105.211 126.331 105.939L119.882 108.146C117.95 108.807 116.544 110.483 116.228 112.5L115.175 119.234C114.828 121.457 112.891 123.082 110.642 123.038L103.827 122.906C101.786 122.866 99.8906 123.96 98.9044 125.748L95.6117 131.716C94.5247 133.686 92.1496 134.551 90.0506 133.74L83.6921 131.285C81.7876 130.549 79.6324 130.929 78.0943 132.272L72.959 136.754C71.2638 138.233 68.7362 138.233 67.041 136.754L61.9057 132.272C60.3676 130.929 58.2124 130.549 56.3079 131.285L49.9494 133.74C47.8504 134.551 45.4753 133.686 44.3883 131.716L41.0956 125.748C40.1094 123.96 38.2142 122.866 36.173 122.906L29.3582 123.038C27.1085 123.082 25.1723 121.457 24.8248 119.234L23.7718 112.5C23.4565 110.483 22.0498 108.807 20.1182 108.146L13.669 105.939C11.54 105.211 10.2763 103.022 10.71 100.814L12.0239 94.126C12.4174 92.1228 11.6689 90.0664 10.0798 88.7847L4.77416 84.5057C3.0227 83.0932 2.5838 80.604 3.74651 78.6776L7.26865 72.8421C8.3236 71.0942 8.3236 68.9058 7.26865 67.1579L3.74651 61.3224C2.5838 59.396 3.0227 56.9068 4.77415 55.4943L10.0798 51.2153C11.6689 49.9336 12.4174 47.8772 12.0239 45.874L10.71 39.1857C10.2763 36.9778 11.5401 34.7889 13.669 34.0605L20.1182 31.8542C22.0498 31.1934 23.4565 29.517 23.7718 27.4999L24.8248 20.7656C25.1723 18.5425 27.1085 16.9179 29.3582 16.9616L36.173 17.0941C38.2142 17.1338 40.1094 16.0396 41.0956 14.252L44.3883 8.28398C45.4753 6.31384 47.8504 5.44938 49.9494 6.2599L56.3079 8.7152C58.2124 9.45061 60.3676 9.07059 61.9057 7.72816L67.041 3.24619Z" stroke="#FF8A00"/>
<path d="M65 53L80.5858 68.5858C81.3669 69.3669 81.3669 70.6332 80.5858 71.4143L65 87.0001" stroke="#FF8A00"/>
</svg>
