<svg viewBox="0 0 136 138" fill="none" xmlns="http://www.w3.org/2000/svg">
<path d="M64.7122 1.86949C66.5958 0.225533 69.4042 0.225533 71.2878 1.86949L76.4231 6.35146C77.8214 7.57185 79.7806 7.91732 81.512 7.24877L87.8705 4.79347C90.2028 3.89288 92.8417 4.8534 94.0495 7.04244L97.3422 13.0105C98.2387 14.6355 99.9616 15.6303 101.817 15.5942L108.632 15.4617C111.132 15.4131 113.283 17.2183 113.669 19.6884L114.722 26.4227C115.009 28.2564 116.288 29.7804 118.044 30.3811L124.493 32.5874C126.858 33.3967 128.263 35.8288 127.781 38.282L126.467 44.9703C126.109 46.7915 126.789 48.6609 128.234 49.8261L133.54 54.1051C135.486 55.6746 135.973 58.4403 134.682 60.5807L131.159 66.4163C130.2 68.0053 130.2 69.9947 131.159 71.5837L134.682 77.4193C135.973 79.5597 135.486 82.3254 133.54 83.8949L128.234 88.1739C126.789 89.3391 126.109 91.2085 126.467 93.0297L127.781 99.718C128.263 102.171 126.858 104.603 124.493 105.413L118.044 107.619C116.288 108.22 115.009 109.744 114.722 111.577L113.669 118.312C113.283 120.782 111.132 122.587 108.632 122.538L101.817 122.406C99.9616 122.37 98.2387 123.364 97.3422 124.99L94.0495 130.958C92.8417 133.147 90.2028 134.107 87.8705 133.207L81.512 130.751C79.7806 130.083 77.8214 130.428 76.4231 131.649L71.2878 136.131C69.4042 137.774 66.5958 137.774 64.7122 136.131L59.5769 131.649C58.1786 130.428 56.2194 130.083 54.488 130.751L48.1295 133.207C45.7972 134.107 43.1582 133.147 41.9505 130.958L38.6578 124.99C37.7613 123.364 36.0384 122.37 34.1828 122.406L27.3679 122.538C24.8683 122.587 22.717 120.782 22.3308 118.312L21.2778 111.577C20.9911 109.744 19.7123 108.22 17.9563 107.619L11.5072 105.413C9.14165 104.603 7.73748 102.171 8.21939 99.718L9.53323 93.0297C9.89098 91.2085 9.21055 89.3391 7.76588 88.1739L2.46027 83.8949C0.514203 82.3254 0.0265365 79.5597 1.31843 77.4193L4.84058 71.5837C5.79962 69.9947 5.79962 68.0053 4.84058 66.4163L1.31844 60.5807C0.0265367 58.4403 0.514203 55.6746 2.46027 54.1051L7.76588 49.8261C9.21054 48.6609 9.89098 46.7915 9.53323 44.9703L8.21939 38.282C7.73748 35.8288 9.14165 33.3967 11.5072 32.5874L17.9563 30.3811C19.7123 29.7804 20.9911 28.2564 21.2778 26.4227L22.3308 19.6884C22.717 17.2183 24.8683 15.4131 27.3679 15.4617L34.1828 15.5942C36.0384 15.6303 37.7613 14.6355 38.6578 13.0105L41.9505 7.04244C43.1582 4.8534 45.7972 3.89289 48.1295 4.79347L54.488 7.24877C56.2194 7.91732 58.1786 7.57185 59.5769 6.35146L64.7122 1.86949Z" fill="#FF8A00"/>
</svg>
