<svg width="141" height="140" viewBox="0 0 141 140" fill="none" xmlns="http://www.w3.org/2000/svg">
<path d="M67.0488 3.24619C68.744 1.76663 71.2716 1.76663 72.9668 3.24619L73.2956 2.86949L72.9668 3.24619L78.1021 7.72816C79.6402 9.07059 81.7954 9.4506 83.6999 8.7152L90.0584 6.2599C92.1575 5.44938 94.5325 6.31384 95.6195 8.28398L98.9122 14.252C99.8984 16.0396 101.794 17.1338 103.835 17.0941L110.65 16.9616C112.899 16.9179 114.835 18.5425 115.183 20.7656L116.236 27.4999C116.551 29.517 117.958 31.1934 119.89 31.8542L126.339 34.0605C128.468 34.7889 129.732 36.9778 129.298 39.1857L127.984 45.874C127.59 47.8772 128.339 49.9336 129.928 51.2153L135.234 55.4943C136.985 56.9068 137.424 59.396 136.261 61.3224L132.739 67.1579C131.684 68.9058 131.684 71.0942 132.739 72.8421L136.261 78.6776C137.424 80.604 136.985 83.0932 135.234 84.5057L129.928 88.7847C128.339 90.0664 127.59 92.1228 127.984 94.126L129.298 100.814C129.732 103.022 128.468 105.211 126.339 105.939L119.89 108.146C117.958 108.807 116.551 110.483 116.236 112.5L115.183 119.234C114.835 121.457 112.899 123.082 110.65 123.038L103.835 122.906C101.794 122.866 99.8984 123.96 98.9122 125.748L95.6195 131.716C94.5325 133.686 92.1575 134.551 90.0584 133.74L83.6999 131.285C81.7954 130.549 79.6402 130.929 78.1021 132.272L72.9668 136.754C71.2716 138.233 68.744 138.233 67.0488 136.754L61.9135 132.272C60.3754 130.929 58.2202 130.549 56.3157 131.285L49.9572 133.74C47.8582 134.551 45.4831 133.686 44.3961 131.716L41.1034 125.748C40.1172 123.96 38.222 122.866 36.1809 122.906L29.366 123.038C27.1163 123.082 25.1802 121.457 24.8326 119.234L23.7796 112.5C23.4643 110.483 22.0576 108.807 20.126 108.146L13.6768 105.939C11.5479 105.211 10.2841 103.022 10.7178 100.814L12.0317 94.126C12.4252 92.1228 11.6767 90.0664 10.0876 88.7847L4.78197 84.5057C3.03051 83.0932 2.59161 80.604 3.75432 78.6776L7.27646 72.8421C8.33141 71.0942 8.33141 68.9058 7.27646 67.1579L3.75432 61.3224C2.59161 59.396 3.03051 56.9068 4.78197 55.4943L10.0876 51.2153C11.6767 49.9336 12.4252 47.8772 12.0317 45.874L10.7178 39.1857C10.2841 36.9778 11.5479 34.7889 13.6768 34.0605L20.126 31.8542C22.0576 31.1934 23.4643 29.517 23.7796 27.4999L24.8326 20.7656C25.1802 18.5425 27.1163 16.9179 29.366 16.9616L36.1808 17.0941C38.222 17.1338 40.1172 16.0396 41.1034 14.252L44.3961 8.28398C45.4831 6.31384 47.8582 5.44938 49.9572 6.2599L56.3158 8.7152C58.2202 9.45061 60.3754 9.07059 61.9135 7.72816L67.0488 3.24619Z" stroke="#FF8A00"/>
</svg>
